Patient4_TMGait_0pt5_01_right_11_EMG.mot
version=1
nRows=23
nColumns=33
inDegrees=no
endheader
time	1LAddLong	2LGlutMax	3LGlutMed	4LIliopsoas	5LSemiMemb	6LBicFemLong	7LRecFem	8LVastMed	9LVastLat	10LGasMed	11LTibAnt	12lTibPost	13LPeroneusLong	14LSol	15LExtDigLong	16LFlexDigLong	17RAddLong	18RGlutMax	19RGlutMed	20RIliopsoas	21RSemiMemb	22RBicFemLong	23RRecFem	24RVastMed	25RVastLat	26RGasMed	27RTibAnt	28RTibPost	29RPeroneusLong	30RSol	31RExtDigLong	32RFlexDigLong
14.12	0.00473	0.023346	-0.081482	-0.000305	0.019836	-0.003967	0.004272	0.007477	0.020294	0.023956	0.000305	0.017242	-0.007324	0.36804	0.050354	-0.012817	-0.056915	-0.13031	0.1474	0.012054	0.039368	0.018463	0.19516	-0.003052	-0.016785	-0.011444	0.45303	-0.006256	-0.60989	0.11566	-0.003357	-0.013733
14.121	0.014648	0.065918	-0.16373	-0.003052	0.032349	-0.053558	0.04837	0.004272	0.054626	0.023651	0.007324	0.004883	0.033569	0.21118	0.046387	-0.028381	-0.040894	-0.13687	0.075073	-0.032043	0.045319	0.037231	0.18951	0.000305	-0.009766	-0.012817	0.4924	-0.002136	-0.79544	0.18799	-0.001984	-0.019531
14.122	0.011902	0.089569	-0.076904	0.006866	0.016327	-0.030212	0.073547	0.002441	0.030365	0.006409	0.001984	-0.042725	0.045166	-0.059052	0.025635	-0.047607	-0.033875	-0.1503	0.28229	-0.032196	0.043335	0.025635	0.15579	0.062103	-0.007324	-0.003357	0.2002	-0.005341	-0.61584	0.13092	-0.000763	-0.022125
14.123	0.007629	0.072174	0.037842	0.023346	-0.012207	-0.033112	0.11765	0.006561	0.005493	-0.017853	-0.000305	-0.013275	0.027618	-0.26627	-0.004272	-0.034637	-0.03067	-0.091858	0.31296	-0.003357	0.023956	0.022278	0.095825	0.005188	-0.005188	0.001678	-0.024109	-0.008545	-0.21286	-0.088806	-0.00473	-0.004883
14.124	0.016785	0.082397	0.05661	-0.007629	-0.011597	-0.057983	0.073395	0.013428	-0.009613	-0.055542	0.001068	-0.013885	0.031586	-0.091858	-0.00351	-0.037079	-0.036163	-0.10056	0.22415	0.050507	0.02182	0.033569	0.080261	0.007172	0.003357	0.001373	-0.066986	-0.002747	0.17822	-0.13016	0.002594	-0.011292
14.125	0.021973	0.11017	0.12039	-0.002289	-0.004425	-0.04837	-0.004425	0.014191	-0.028992	-0.06012	0.007019	0	0.024109	0.19058	0.000916	-0.12848	-0.030823	-0.16129	0.014648	0.1062	0.030823	0.018768	0.043335	0.005188	-0.015564	0.001831	-0.1059	-0.002594	0.79941	-0.090637	-0.000458	-0.00885
14.126	0.02243	0.10895	0.10407	0.004272	0.002747	-0.036926	0.003357	0.013733	-0.028076	-0.060272	-0.00061	0.007324	0.000763	0.37415	0.010529	0.031738	-0.009918	-0.18173	0.012207	0.10437	0.013123	0.009155	0.040894	-0.0354	0.002747	-0.002441	-0.11795	-0.004272	0.91782	0.032806	-0.000458	0.005493
14.127	0.028992	0.052795	0.065155	0.013428	0.006256	-0.004578	0.003204	0.009613	-0.093231	-0.086823	0.010529	0.016632	-0.025787	0.31342	-0.010834	0.10468	0.003204	-0.11093	0.21011	0.022888	0.000305	-0.015869	0.009766	-0.076447	-0.005493	-0.009155	-0.047607	-0.001373	0.58792	0.022125	-0.005493	0.004578
14.128	0.016632	0.065308	0.032806	0.012512	0.029602	0.039673	0.049744	0.01236	0.072021	-0.054169	0.004578	0.02182	-0.019684	0.2533	-0.014496	-0.76492	0.002747	-0.13901	0.13443	0.063934	-0.009918	-0.015564	-0.048065	-0.097198	-0.003815	-0.010986	0.086212	-0.000458	-0.24689	-0.027466	0.003052	0.008087
14.129	0.011139	0.068359	0.048828	-0.001373	0.033875	0.042267	0.095367	0.010681	0.10269	-0.006409	-0.001221	0.012665	0.003357	0.040588	0.001373	0.40588	0.0177	-0.081177	0.12634	0.092773	-0.011444	0.002289	0.046082	-0.059052	-0.013733	-0.011292	0.19333	-0.002747	-0.17425	-0.030518	-0.002747	0.000305
14.13	0.00885	-0.025177	0.073853	0.003967	0.017853	0.012207	0.089874	0.008392	0.094299	0.099487	0.000458	0.001984	0.015411	-0.37033	0.004425	0.27664	0.040588	-0.16357	0.15015	0.103	-0.011292	-0.00885	0.044403	-0.087585	-0.025024	-0.011444	0.13672	-0.003662	0.44327	-0.023193	-0.00061	0.002594
14.131	0.001221	-0.080719	0.079041	0.000916	0.049591	0.014801	0.079041	0.008392	0.097046	0.13901	-0.002441	0.00061	0.038452	-0.24323	0.004883	0.072479	0.075989	-0.22003	0.10712	0.04776	-0.006104	-0.015106	0.040894	-0.094147	-0.024414	-0.010376	0.095062	0.000305	0.33493	0.00061	0.003662	0.005035
14.132	0.007477	-0.057068	0.067596	0.002594	0.072479	0.012512	0.072021	0.01297	0.12604	0.15717	0.014038	0.003204	0.037231	-0.049286	0.003815	0.073547	0.069733	-0.17502	-0.015869	0.02182	-0.007782	0.011444	0.064697	-0.072174	-0.036469	-0.008698	0.070648	-0.005035	-0.39673	-0.025635	-0.008392	0.00824
14.133	0.005035	-0.027771	0.072784	0.007782	0.040588	0.003357	0.020294	0.006561	-0.024872	0.15137	0.019073	0.002747	0.034943	-0.33005	0.004883	0.19959	0.057983	-0.13245	-0.11887	-0.010681	0.003815	-0.000305	0.051117	-0.05249	-0.037689	-0.010071	0.11536	-0.003357	-0.72006	0	0.004578	0.00885
14.134	0.012512	0.009308	0.041656	0.007019	-0.007935	-0.007172	-0.041962	-0.00885	-0.082703	0.069275	0.027466	0.021667	0.0177	-0.31784	0.014801	-0.7489	0.037079	-0.11231	0.058289	-0.040436	0.015717	0.007477	0.040436	-0.015869	-0.039063	-0.012665	0.15076	-0.000916	-0.35965	0.012512	0.00061	0.007324
14.135	0.016174	0.079956	0.033875	0.006409	-0.046234	-0.030823	-0.064697	-0.009918	-0.006714	-0.14084	0.011292	0.017242	-0.080719	0.14954	0.01709	0.049286	0.00946	-0.15243	0.21515	-0.079956	0.003662	-0.000763	0.080414	0.006714	-0.033264	-0.01709	0.17197	0.000458	0.11246	-0.009766	0.006561	0.005798
14.136	0.013885	0.13504	0.060883	-0.008545	-0.041199	-0.04837	-0.036163	-0.015869	0.027008	-0.29358	0.023651	0.026703	-0.006104	0.068054	0.019531	-0.023193	0.000305	-0.10208	0.30991	-0.14435	-0.007477	-0.009918	0.072784	-0.00824	-0.049286	-0.00946	0.18295	-0.006714	0.045013	-0.037231	-0.007477	0.003204
14.137	0.011749	0.10254	0.075989	-0.007935	-0.021515	-0.024567	0.085602	-0.007324	0.06897	-0.31189	0.008545	0.007019	-0.002594	-0.00412	0.022125	0.047455	0.016785	-0.10757	0.15305	-0.067902	-0.005493	0.030823	0.093231	-0.016785	-0.03479	-0.007324	0.054626	-0.001526	-0.044556	-0.045929	-0.00473	0.016632
14.138	0.00946	0.15167	0.14542	0.003357	-0.006256	0.04776	0.077667	-0.008545	0.04715	-0.23941	0.012207	0.13931	-0.18997	0.19577	0.020599	-0.26703	0.027161	-0.096588	0.024567	0.040131	0.003815	0.027466	0.11169	-0.042572	-0.027161	-0.007324	-0.07782	-0.000305	-0.054474	-0.07309	-0.005798	0.024872
14.139	-0.007477	0.12711	0.19684	0.012817	0.053406	0.11429	0.055237	-0.006104	0.017548	-0.042114	-0.004883	0.44784	-0.2243	0.61874	0.027924	-0.30258	0.1088	-0.097809	0.062256	0.020142	-0.010071	0.012665	0.12802	-0.11841	-0.04303	-0.008087	-0.079651	0.00061	0.021057	-0.027771	-0.003357	0.032501
14.14	0.001984	0.062103	0.029907	0.009308	0.042572	0.13825	0.072784	0.006104	0.001221	0.32425	-0.04425	0.015106	-0.13153	0.522	0.018616	0.77576	0.1767	-0.12894	0.1944	0.013428	-0.020905	0.015259	0.13153	-0.13062	-0.055084	-0.010529	0.070496	-0.001526	-0.2446	0.032959	-0.003204	0.034027
14.141	-0.01297	-0.004578	-0.039063	-0.014038	-0.024109	0.047913	0.0737	0.006104	-0.029907	0.43823	-0.032349	-0.39352	-0.078125	0.26459	-0.011902	0.34759	0.12299	-0.13947	0.38574	-0.026703	-0.024109	0.025787	0.14191	-0.13916	-0.032806	-0.007172	0.14145	-0.001373	-0.28198	-0.018311	-0.001984	0.044861
14.142	0.009003	-0.074158	-0.081482	0.001068	-0.03067	-0.042419	0.087738	0.010986	-0.032806	0.24597	-0.028839	-0.22553	0.233	0.24948	-0.011139	-0.19791	0.048218	-0.10452	0.33402	-0.000153	-0.0177	0.026398	0.11093	-0.10819	-0.045319	-0.001678	0.048523	0.000916	-0.075989	-0.059814	-0.003662	0.068054
